<svg width="1000" height="250" viewBox="0 0 1000 250" fill="none" xmlns="http://www.w3.org/2000/svg">
<g clip-path="url(#clip0_0_1)">
<path d="M357 73H375V153.5L373.188 169H357V73ZM417.812 134.5V135.812C417.812 140.854 417.271 145.479 416.188 149.688C415.146 153.896 413.521 157.542 411.312 160.625C409.104 163.667 406.354 166.042 403.062 167.75C399.812 169.417 395.979 170.25 391.562 170.25C387.438 170.25 383.854 169.417 380.812 167.75C377.812 166.083 375.292 163.729 373.25 160.688C371.208 157.646 369.562 154.083 368.312 150C367.062 145.917 366.125 141.458 365.5 136.625V133.75C366.125 128.917 367.062 124.458 368.312 120.375C369.562 116.292 371.208 112.729 373.25 109.688C375.292 106.646 377.812 104.292 380.812 102.625C383.812 100.958 387.354 100.125 391.438 100.125C395.896 100.125 399.771 100.979 403.062 102.688C406.396 104.354 409.146 106.729 411.312 109.812C413.521 112.854 415.146 116.479 416.188 120.688C417.271 124.854 417.812 129.458 417.812 134.5ZM399.812 135.812V134.5C399.812 131.75 399.604 129.167 399.188 126.75C398.812 124.292 398.146 122.146 397.188 120.312C396.229 118.438 394.917 116.958 393.25 115.875C391.625 114.792 389.521 114.25 386.938 114.25C384.479 114.25 382.396 114.667 380.688 115.5C378.979 116.333 377.562 117.5 376.438 119C375.354 120.5 374.542 122.292 374 124.375C373.458 126.417 373.125 128.667 373 131.125V139.312C373.125 142.604 373.667 145.521 374.625 148.062C375.625 150.562 377.125 152.542 379.125 154C381.167 155.417 383.812 156.125 387.062 156.125C389.604 156.125 391.708 155.625 393.375 154.625C395.042 153.625 396.333 152.208 397.25 150.375C398.208 148.542 398.875 146.396 399.25 143.938C399.625 141.438 399.812 138.729 399.812 135.812ZM460.125 170.25C454.875 170.25 450.167 169.417 446 167.75C441.833 166.042 438.292 163.688 435.375 160.688C432.5 157.688 430.292 154.208 428.75 150.25C427.208 146.25 426.438 142 426.438 137.5V135C426.438 129.875 427.167 125.188 428.625 120.938C430.083 116.688 432.167 113 434.875 109.875C437.625 106.75 440.958 104.354 444.875 102.688C448.792 100.979 453.208 100.125 458.125 100.125C462.917 100.125 467.167 100.917 470.875 102.5C474.583 104.083 477.688 106.333 480.188 109.25C482.729 112.167 484.646 115.667 485.938 119.75C487.229 123.792 487.875 128.292 487.875 133.25V140.75H434.125V128.75H470.188V127.375C470.188 124.875 469.729 122.646 468.812 120.688C467.938 118.688 466.604 117.104 464.812 115.938C463.021 114.771 460.729 114.188 457.938 114.188C455.562 114.188 453.521 114.708 451.812 115.75C450.104 116.792 448.708 118.25 447.625 120.125C446.583 122 445.792 124.208 445.25 126.75C444.75 129.25 444.5 132 444.5 135V137.5C444.5 140.208 444.875 142.708 445.625 145C446.417 147.292 447.521 149.271 448.938 150.938C450.396 152.604 452.146 153.896 454.188 154.812C456.271 155.729 458.625 156.188 461.25 156.188C464.5 156.188 467.521 155.562 470.312 154.312C473.146 153.021 475.583 151.083 477.625 148.5L486.375 158C484.958 160.042 483.021 162 480.562 163.875C478.146 165.75 475.229 167.292 471.812 168.5C468.396 169.667 464.5 170.25 460.125 170.25ZM534.625 153.75V123.625C534.625 121.458 534.271 119.604 533.562 118.062C532.854 116.479 531.75 115.25 530.25 114.375C528.792 113.5 526.896 113.062 524.562 113.062C522.562 113.062 520.833 113.417 519.375 114.125C517.917 114.792 516.792 115.771 516 117.062C515.208 118.312 514.812 119.792 514.812 121.5H496.812C496.812 118.625 497.479 115.896 498.812 113.312C500.146 110.729 502.083 108.458 504.625 106.5C507.167 104.5 510.188 102.938 513.688 101.812C517.229 100.688 521.188 100.125 525.562 100.125C530.812 100.125 535.479 101 539.562 102.75C543.646 104.5 546.854 107.125 549.188 110.625C551.562 114.125 552.75 118.5 552.75 123.75V152.688C552.75 156.396 552.979 159.438 553.438 161.812C553.896 164.146 554.562 166.188 555.438 167.938V169H537.25C536.375 167.167 535.708 164.875 535.25 162.125C534.833 159.333 534.625 156.542 534.625 153.75ZM537 127.812L537.125 138H527.062C524.688 138 522.625 138.271 520.875 138.812C519.125 139.354 517.688 140.125 516.562 141.125C515.438 142.083 514.604 143.208 514.062 144.5C513.562 145.792 513.312 147.208 513.312 148.75C513.312 150.292 513.667 151.688 514.375 152.938C515.083 154.146 516.104 155.104 517.438 155.812C518.771 156.479 520.333 156.812 522.125 156.812C524.833 156.812 527.188 156.271 529.188 155.188C531.188 154.104 532.729 152.771 533.812 151.188C534.938 149.604 535.521 148.104 535.562 146.688L540.312 154.312C539.646 156.021 538.729 157.792 537.562 159.625C536.438 161.458 535 163.188 533.25 164.812C531.5 166.396 529.396 167.708 526.938 168.75C524.479 169.75 521.562 170.25 518.188 170.25C513.896 170.25 510 169.396 506.5 167.688C503.042 165.938 500.292 163.542 498.25 160.5C496.25 157.417 495.25 153.917 495.25 150C495.25 146.458 495.917 143.312 497.25 140.562C498.583 137.812 500.542 135.5 503.125 133.625C505.75 131.708 509.021 130.271 512.938 129.312C516.854 128.312 521.396 127.812 526.562 127.812H537ZM584.625 115.375V169H566.562V101.375H583.5L584.625 115.375ZM582.125 132.812H577.125C577.125 128.104 577.688 123.771 578.812 119.812C579.979 115.812 581.667 112.354 583.875 109.438C586.125 106.479 588.896 104.188 592.188 102.562C595.479 100.938 599.292 100.125 603.625 100.125C606.625 100.125 609.375 100.583 611.875 101.5C614.375 102.375 616.521 103.771 618.312 105.688C620.146 107.562 621.562 110.021 622.562 113.062C623.562 116.062 624.062 119.667 624.062 123.875V169H606.062V125.875C606.062 122.792 605.646 120.417 604.812 118.75C603.979 117.083 602.792 115.917 601.25 115.25C599.75 114.583 597.938 114.25 595.812 114.25C593.479 114.25 591.438 114.729 589.688 115.688C587.979 116.646 586.562 117.979 585.438 119.688C584.312 121.354 583.479 123.312 582.938 125.562C582.396 127.812 582.125 130.229 582.125 132.812ZM622.375 130.75L615.938 131.562C615.938 127.146 616.479 123.042 617.562 119.25C618.688 115.458 620.333 112.125 622.5 109.25C624.708 106.375 627.438 104.146 630.688 102.562C633.938 100.938 637.688 100.125 641.938 100.125C645.188 100.125 648.146 100.604 650.812 101.562C653.479 102.479 655.75 103.958 657.625 106C659.542 108 661 110.625 662 113.875C663.042 117.125 663.562 121.104 663.562 125.812V169H645.5V125.812C645.5 122.688 645.083 120.312 644.25 118.688C643.458 117.021 642.292 115.875 640.75 115.25C639.25 114.583 637.458 114.25 635.375 114.25C633.208 114.25 631.312 114.688 629.688 115.562C628.062 116.396 626.708 117.562 625.625 119.062C624.542 120.562 623.729 122.312 623.188 124.312C622.646 126.271 622.375 128.417 622.375 130.75Z" fill="white"/>
<rect width="1000" height="250" rx="40" fill="url(#paint0_linear_0_1)"/>
<g style="mix-blend-mode:hard-light">
<path d="M341.188 198.375V213H292.75V198.375H341.188ZM298.875 122V213H280.125V122H298.875ZM334.875 159.062V173.312H292.75V159.062H334.875ZM341.125 122V136.688H292.75V122H341.125Z" fill="#A6ACBC"/>
</g>
<g style="mix-blend-mode:hard-light">
<path d="M417.875 121.375V125.688C417.875 132.604 416.938 138.812 415.062 144.312C413.188 149.812 410.542 154.5 407.125 158.375C403.708 162.208 399.625 165.146 394.875 167.188C390.167 169.229 384.938 170.25 379.188 170.25C373.479 170.25 368.25 169.229 363.5 167.188C358.792 165.146 354.708 162.208 351.25 158.375C347.792 154.5 345.104 149.812 343.188 144.312C341.312 138.812 340.375 132.604 340.375 125.688V121.375C340.375 114.417 341.312 108.208 343.188 102.75C345.062 97.25 347.708 92.5625 351.125 88.6875C354.583 84.8125 358.667 81.8542 363.375 79.8125C368.125 77.7708 373.354 76.75 379.062 76.75C384.812 76.75 390.042 77.7708 394.75 79.8125C399.5 81.8542 403.583 84.8125 407 88.6875C410.458 92.5625 413.125 97.25 415 102.75C416.917 108.208 417.875 114.417 417.875 121.375ZM398.938 125.688V121.25C398.938 116.417 398.5 112.167 397.625 108.5C396.75 104.833 395.458 101.75 393.75 99.25C392.042 96.75 389.958 94.875 387.5 93.625C385.042 92.3333 382.229 91.6875 379.062 91.6875C375.896 91.6875 373.083 92.3333 370.625 93.625C368.208 94.875 366.146 96.75 364.438 99.25C362.771 101.75 361.5 104.833 360.625 108.5C359.75 112.167 359.312 116.417 359.312 121.25V125.688C359.312 130.479 359.75 134.729 360.625 138.438C361.5 142.104 362.792 145.208 364.5 147.75C366.208 150.25 368.292 152.146 370.75 153.438C373.208 154.729 376.021 155.375 379.188 155.375C382.354 155.375 385.167 154.729 387.625 153.438C390.083 152.146 392.146 150.25 393.812 147.75C395.479 145.208 396.75 142.104 397.625 138.438C398.5 134.729 398.938 130.479 398.938 125.688Z" fill="#EAF1F1"/>
</g>
<g style="mix-blend-mode:hard-light">
<path d="M288.188 78V169H269.438L232.875 108V169H214.125V78H232.875L269.5 139.062V78H288.188Z" fill="#D9DFEF"/>
</g>
<path d="M431 100H449V180.5L447.188 196H431V100ZM491.812 161.5V162.812C491.812 167.854 491.271 172.479 490.188 176.688C489.146 180.896 487.521 184.542 485.312 187.625C483.104 190.667 480.354 193.042 477.062 194.75C473.812 196.417 469.979 197.25 465.562 197.25C461.438 197.25 457.854 196.417 454.812 194.75C451.812 193.083 449.292 190.729 447.25 187.688C445.208 184.646 443.562 181.083 442.312 177C441.062 172.917 440.125 168.458 439.5 163.625V160.75C440.125 155.917 441.062 151.458 442.312 147.375C443.562 143.292 445.208 139.729 447.25 136.688C449.292 133.646 451.812 131.292 454.812 129.625C457.812 127.958 461.354 127.125 465.438 127.125C469.896 127.125 473.771 127.979 477.062 129.688C480.396 131.354 483.146 133.729 485.312 136.812C487.521 139.854 489.146 143.479 490.188 147.688C491.271 151.854 491.812 156.458 491.812 161.5ZM473.812 162.812V161.5C473.812 158.75 473.604 156.167 473.188 153.75C472.812 151.292 472.146 149.146 471.188 147.312C470.229 145.438 468.917 143.958 467.25 142.875C465.625 141.792 463.521 141.25 460.938 141.25C458.479 141.25 456.396 141.667 454.688 142.5C452.979 143.333 451.562 144.5 450.438 146C449.354 147.5 448.542 149.292 448 151.375C447.458 153.417 447.125 155.667 447 158.125V166.312C447.125 169.604 447.667 172.521 448.625 175.062C449.625 177.562 451.125 179.542 453.125 181C455.167 182.417 457.812 183.125 461.062 183.125C463.604 183.125 465.708 182.625 467.375 181.625C469.042 180.625 470.333 179.208 471.25 177.375C472.208 175.542 472.875 173.396 473.25 170.938C473.625 168.438 473.812 165.729 473.812 162.812ZM534.125 197.25C528.875 197.25 524.167 196.417 520 194.75C515.833 193.042 512.292 190.688 509.375 187.688C506.5 184.688 504.292 181.208 502.75 177.25C501.208 173.25 500.438 169 500.438 164.5V162C500.438 156.875 501.167 152.188 502.625 147.938C504.083 143.688 506.167 140 508.875 136.875C511.625 133.75 514.958 131.354 518.875 129.688C522.792 127.979 527.208 127.125 532.125 127.125C536.917 127.125 541.167 127.917 544.875 129.5C548.583 131.083 551.688 133.333 554.188 136.25C556.729 139.167 558.646 142.667 559.938 146.75C561.229 150.792 561.875 155.292 561.875 160.25V167.75H508.125V155.75H544.188V154.375C544.188 151.875 543.729 149.646 542.812 147.688C541.938 145.688 540.604 144.104 538.812 142.938C537.021 141.771 534.729 141.188 531.938 141.188C529.562 141.188 527.521 141.708 525.812 142.75C524.104 143.792 522.708 145.25 521.625 147.125C520.583 149 519.792 151.208 519.25 153.75C518.75 156.25 518.5 159 518.5 162V164.5C518.5 167.208 518.875 169.708 519.625 172C520.417 174.292 521.521 176.271 522.938 177.938C524.396 179.604 526.146 180.896 528.188 181.812C530.271 182.729 532.625 183.188 535.25 183.188C538.5 183.188 541.521 182.562 544.312 181.312C547.146 180.021 549.583 178.083 551.625 175.5L560.375 185C558.958 187.042 557.021 189 554.562 190.875C552.146 192.75 549.229 194.292 545.812 195.5C542.396 196.667 538.5 197.25 534.125 197.25ZM608.625 180.75V150.625C608.625 148.458 608.271 146.604 607.562 145.062C606.854 143.479 605.75 142.25 604.25 141.375C602.792 140.5 600.896 140.062 598.562 140.062C596.562 140.062 594.833 140.417 593.375 141.125C591.917 141.792 590.792 142.771 590 144.062C589.208 145.312 588.812 146.792 588.812 148.5H570.812C570.812 145.625 571.479 142.896 572.812 140.312C574.146 137.729 576.083 135.458 578.625 133.5C581.167 131.5 584.188 129.938 587.688 128.812C591.229 127.688 595.188 127.125 599.562 127.125C604.812 127.125 609.479 128 613.562 129.75C617.646 131.5 620.854 134.125 623.188 137.625C625.562 141.125 626.75 145.5 626.75 150.75V179.688C626.75 183.396 626.979 186.438 627.438 188.812C627.896 191.146 628.562 193.188 629.438 194.938V196H611.25C610.375 194.167 609.708 191.875 609.25 189.125C608.833 186.333 608.625 183.542 608.625 180.75ZM611 154.812L611.125 165H601.062C598.688 165 596.625 165.271 594.875 165.812C593.125 166.354 591.688 167.125 590.562 168.125C589.438 169.083 588.604 170.208 588.062 171.5C587.562 172.792 587.312 174.208 587.312 175.75C587.312 177.292 587.667 178.688 588.375 179.938C589.083 181.146 590.104 182.104 591.438 182.812C592.771 183.479 594.333 183.812 596.125 183.812C598.833 183.812 601.188 183.271 603.188 182.188C605.188 181.104 606.729 179.771 607.812 178.188C608.938 176.604 609.521 175.104 609.562 173.688L614.312 181.312C613.646 183.021 612.729 184.792 611.562 186.625C610.438 188.458 609 190.188 607.25 191.812C605.5 193.396 603.396 194.708 600.938 195.75C598.479 196.75 595.562 197.25 592.188 197.25C587.896 197.25 584 196.396 580.5 194.688C577.042 192.938 574.292 190.542 572.25 187.5C570.25 184.417 569.25 180.917 569.25 177C569.25 173.458 569.917 170.312 571.25 167.562C572.583 164.812 574.542 162.5 577.125 160.625C579.75 158.708 583.021 157.271 586.938 156.312C590.854 155.312 595.396 154.812 600.562 154.812H611ZM658.625 142.375V196H640.562V128.375H657.5L658.625 142.375ZM656.125 159.812H651.125C651.125 155.104 651.688 150.771 652.812 146.812C653.979 142.812 655.667 139.354 657.875 136.438C660.125 133.479 662.896 131.188 666.188 129.562C669.479 127.938 673.292 127.125 677.625 127.125C680.625 127.125 683.375 127.583 685.875 128.5C688.375 129.375 690.521 130.771 692.312 132.688C694.146 134.562 695.562 137.021 696.562 140.062C697.562 143.062 698.062 146.667 698.062 150.875V196H680.062V152.875C680.062 149.792 679.646 147.417 678.812 145.75C677.979 144.083 676.792 142.917 675.25 142.25C673.75 141.583 671.938 141.25 669.812 141.25C667.479 141.25 665.438 141.729 663.688 142.688C661.979 143.646 660.562 144.979 659.438 146.688C658.312 148.354 657.479 150.312 656.938 152.562C656.396 154.812 656.125 157.229 656.125 159.812ZM696.375 157.75L689.938 158.562C689.938 154.146 690.479 150.042 691.562 146.25C692.688 142.458 694.333 139.125 696.5 136.25C698.708 133.375 701.438 131.146 704.688 129.562C707.938 127.938 711.688 127.125 715.938 127.125C719.188 127.125 722.146 127.604 724.812 128.562C727.479 129.479 729.75 130.958 731.625 133C733.542 135 735 137.625 736 140.875C737.042 144.125 737.562 148.104 737.562 152.812V196H719.5V152.812C719.5 149.688 719.083 147.312 718.25 145.688C717.458 144.021 716.292 142.875 714.75 142.25C713.25 141.583 711.458 141.25 709.375 141.25C707.208 141.25 705.312 141.688 703.688 142.562C702.062 143.396 700.708 144.562 699.625 146.062C698.542 147.562 697.729 149.312 697.188 151.312C696.646 153.271 696.375 155.417 696.375 157.75Z" fill="url(#paint1_linear_0_1)"/>
</g>
<defs>
<linearGradient id="paint0_linear_0_1" x1="194" y1="-4.70459e-06" x2="990" y2="243" gradientUnits="userSpaceOnUse">
<stop stop-color="#4D85D1"/>
<stop offset="1" stop-color="#27446B"/>
</linearGradient>
<linearGradient id="paint1_linear_0_1" x1="565" y1="113" x2="761" y2="227" gradientUnits="userSpaceOnUse">
<stop stop-color="#F7FFFF"/>
<stop offset="1" stop-color="#A6ACBC"/>
</linearGradient>
<clipPath id="clip0_0_1">
<rect width="1000" height="250" fill="white"/>
</clipPath>
</defs>
</svg>
